<?xml version="1.0" standalone="no"?>
<!DOCTYPE svg PUBLIC "-//W3C//DTD SVG 20010904//EN"
 "http://www.w3.org/TR/2001/REC-SVG-20010904/DTD/svg10.dtd">
<svg version="1.0" xmlns="http://www.w3.org/2000/svg"
 width="666.000000pt" height="375.000000pt" viewBox="0 0 666.000000 375.000000"
 preserveAspectRatio="xMidYMid meet">

<g transform="translate(0.000000,375.000000) scale(0.100000,-0.100000)"
fill="#000000" stroke="none">
<path d="M1248 2730 c-10 -23 -31 -534 -24 -572 3 -18 29 -66 56 -106 60 -89
58 -14 29 -764 -18 -470 -19 -560 -7 -584 17 -36 39 -48 70 -41 53 14 53 17
33 667 -10 329 -16 616 -13 637 3 23 21 61 43 92 58 80 62 106 49 288 -6 87
-15 211 -19 276 -4 64 -11 117 -16 117 -5 0 -10 -91 -11 -202 -3 -173 -5 -203
-18 -203 -13 0 -16 31 -20 197 -3 108 -8 199 -11 202 -6 7 -19 -204 -19 -321
0 -65 -10 -97 -24 -75 -3 5 -8 97 -12 205 -4 108 -11 197 -15 197 -5 0 -10
-91 -11 -202 -3 -173 -5 -203 -18 -203 -13 0 -17 34 -26 205 -5 113 -13 198
-16 190z"/>
<path d="M5207 2722 c-25 -27 -54 -116 -74 -224 -27 -144 -26 -654 2 -793 17
-83 20 -139 20 -335 -1 -129 -7 -334 -14 -455 l-13 -219 22 -18 c29 -23 91
-23 120 0 l22 18 -17 220 c-23 308 -29 633 -16 879 7 116 14 363 17 550 4 274
3 345 -8 365 -17 32 -40 36 -61 12z"/>
<path d="M2700 2145 c0 -83 4 -135 10 -135 6 0 10 48 10 123 0 82 4 127 12
135 9 9 7 12 -10 12 -22 0 -22 -3 -22 -135z"/>
<path d="M2936 2181 c-3 -4 6 -6 19 -3 14 2 25 6 25 8 0 8 -39 4 -44 -5z"/>
<path d="M3145 2115 c27 -60 32 -81 25 -100 -11 -30 7 -46 25 -22 10 14 7 28
-17 78 -16 33 -31 74 -35 90 -3 16 -12 29 -19 29 -9 0 -3 -22 21 -75z"/>
<path d="M3250 2168 c0 -12 1 -19 3 -17 1 2 9 12 16 22 12 14 11 17 -3 17 -10
0 -16 -8 -16 -22z"/>
<path d="M3531 2106 c-2 -61 1 -86 11 -92 9 -6 6 -10 -11 -14 -38 -9 -35 -25
4 -25 28 0 34 3 28 15 -4 8 -7 55 -8 104 0 117 -20 127 -24 12z"/>
<path d="M3613 2183 c-36 -7 -27 -23 12 -23 24 0 35 5 35 15 0 15 -6 16 -47 8z"/>
<path d="M3717 2183 c-13 -12 -8 -161 5 -169 9 -6 5 -10 -11 -14 -38 -9 -35
-25 4 -25 25 0 34 4 30 13 -3 8 -5 56 -5 108 0 86 -5 106 -23 87z"/>
<path d="M3311 2151 c-20 -28 -20 -32 -7 -63 l14 -33 1 46 c1 25 6 50 13 57 6
6 9 14 6 17 -3 4 -15 -7 -27 -24z"/>
<path d="M3870 2091 c4 -80 3 -91 -12 -95 -29 -7 -20 -23 10 -18 l27 4 -3 76
c-3 87 -9 122 -20 122 -4 0 -5 -40 -2 -89z"/>
<path d="M3040 2096 c0 -41 5 -78 10 -81 6 -4 10 21 10 69 0 41 -4 78 -10 81
-6 4 -10 -21 -10 -69z"/>
<path d="M3453 2144 c-18 -18 -16 -24 7 -24 11 0 20 6 20 14 0 21 -13 26 -27
10z"/>
<path d="M2904 2076 c-12 -10 -16 -18 -9 -25 7 -6 16 -1 28 15 20 27 11 32
-19 10z"/>
<path d="M3441 2013 c-21 -8 -55 -13 -83 -11 l-49 3 23 -19 c31 -25 92 -16
127 18 29 30 29 30 -18 9z"/>
<path d="M2980 2010 c-8 -5 -35 -10 -60 -10 -42 -1 -44 -2 -26 -15 27 -21 58
-19 84 5 30 28 31 39 2 20z"/>
<path d="M2825 1988 c-28 -19 -29 -20 -5 -14 14 3 31 6 38 6 6 0 12 7 12 15 0
19 -8 18 -45 -7z"/>
<path d="M2670 1990 c0 -5 9 -10 19 -10 11 0 28 -3 38 -7 16 -6 16 -5 4 10
-14 18 -61 23 -61 7z"/>
<path d="M3020 1990 c0 -5 11 -10 25 -10 14 0 25 5 25 10 0 6 -11 10 -25 10
-14 0 -25 -4 -25 -10z"/>
<path d="M4262 1739 c-11 -18 -20 -20 -53 -15 l-38 6 -15 -52 c-45 -158 -54
-198 -45 -203 11 -7 11 -8 47 125 l29 105 39 0 c48 1 64 10 64 36 0 25 -12 24
-28 -2z"/>
<path d="M2344 1729 c-6 -11 -34 -108 -34 -121 0 -5 4 -8 9 -8 6 0 18 27 27
60 15 56 19 60 46 60 17 0 27 4 23 10 -8 13 -62 13 -71 -1z"/>
<path d="M2609 1668 c-24 -81 -36 -173 -23 -181 5 -3 9 7 10 23 1 15 12 67 25
115 17 62 29 89 42 93 26 7 21 22 -8 22 -21 0 -27 -8 -46 -72z"/>
<path d="M2792 1728 c-7 -7 -12 -20 -12 -29 0 -33 -58 -210 -75 -229 -14 -16
-31 -20 -79 -20 -43 0 -57 -3 -46 -10 8 -5 34 -10 57 -10 69 0 94 29 133 161
21 69 41 115 52 123 10 6 18 14 18 18 0 12 -35 9 -48 -4z"/>
<path d="M2920 1722 c-19 -15 -22 -24 -16 -48 l8 -29 11 35 c9 27 20 38 47 47
l35 12 -31 0 c-18 1 -42 -7 -54 -17z"/>
<path d="M3202 1720 c-21 -13 -41 -38 -54 -67 -22 -50 -30 -145 -13 -162 7 -6
10 8 11 42 1 99 40 168 109 192 38 14 39 14 10 15 -16 0 -45 -9 -63 -20z"/>
<path d="M3527 1733 c-14 -23 -55 -216 -50 -230 4 -10 18 27 35 93 21 77 36
114 51 126 l22 18 -27 0 c-15 0 -29 -3 -31 -7z"/>
<path d="M3692 1728 c-7 -7 -12 -19 -12 -27 -1 -34 -59 -214 -76 -232 -13 -15
-31 -19 -78 -19 -49 -1 -57 -3 -42 -11 10 -6 39 -9 64 -6 62 7 84 35 117 144
36 121 45 143 61 143 8 0 14 5 14 10 0 14 -33 13 -48 -2z"/>
<path d="M3845 1728 c-24 -65 -32 -108 -20 -108 6 0 18 24 26 53 14 50 16 52
54 58 l40 6 -48 2 c-30 0 -49 -4 -52 -11z"/>
<path d="M3975 1710 c3 -44 15 -49 15 -7 0 21 -4 37 -9 37 -5 0 -8 -14 -6 -30z"/>
<path d="M4055 1728 c-10 -26 -10 -57 0 -60 5 -2 12 10 15 27 4 20 12 31 30
36 23 6 22 7 -8 8 -18 1 -35 -5 -37 -11z"/>
<path d="M4364 1730 c-30 -12 -37 -26 -29 -58 l7 -27 11 35 c9 27 20 38 47 47
29 10 31 12 10 12 -14 0 -35 -4 -46 -9z"/>
<path d="M4487 1695 c-6 -35 -1 -43 15 -27 8 8 8 18 1 34 -10 22 -10 22 -16
-7z"/>
<path d="M2470 1684 c0 -18 -12 -40 -32 -61 -29 -30 -30 -33 -11 -33 42 0 85
95 53 115 -6 4 -10 -6 -10 -21z"/>
<path d="M3060 1696 c0 -9 -5 -16 -12 -16 -9 0 -9 -3 -1 -11 6 -6 16 -8 22 -5
14 9 14 33 1 41 -5 3 -10 -1 -10 -9z"/>
<path d="M3368 1654 c6 -65 -35 -143 -95 -183 -25 -17 -50 -28 -54 -25 -5 3
-9 0 -9 -5 0 -15 24 -14 63 3 71 29 126 128 113 205 -8 52 -22 56 -18 5z"/>
<path d="M3920 1592 c0 -23 5 -42 10 -42 7 0 8 14 4 38 -9 51 -14 53 -14 4z"/>
<path d="M3805 1587 c-23 -72 -29 -117 -16 -117 5 0 15 25 22 55 l12 55 40 0
c50 0 45 6 -11 13 -28 3 -45 1 -47 -6z"/>
<path d="M2290 1539 c-8 -34 -9 -54 -2 -61 6 -6 14 7 22 41 12 49 13 51 48 51
45 0 39 5 -15 14 l-41 6 -12 -51z"/>
<path d="M3011 1538 c-1 -16 -14 -42 -30 -60 -25 -28 -35 -32 -72 -31 -31 2
-39 -1 -29 -7 8 -5 31 -10 51 -10 65 0 111 58 90 112 -10 23 -10 23 -10 -4z"/>
<path d="M4440 1538 c0 -16 -12 -41 -29 -60 -25 -28 -35 -32 -72 -31 -31 2
-39 -1 -29 -7 26 -17 86 -11 113 10 29 23 43 71 28 97 -9 16 -10 14 -11 -9z"/>
<path d="M2446 1520 c-9 -48 -56 -70 -148 -70 -52 0 -78 -4 -78 -11 0 -18 168
-6 207 14 31 17 43 35 43 67 0 32 -17 31 -24 0z"/>
<path d="M2840 1520 c0 -8 5 -22 10 -30 9 -13 10 -13 10 0 0 8 -5 22 -10 30
-9 13 -10 13 -10 0z"/>
<path d="M4270 1520 c0 -8 5 -22 10 -30 9 -13 10 -13 10 0 0 8 -5 22 -10 30
-9 13 -10 13 -10 0z"/>
<path d="M3212 1490 c0 -14 2 -19 5 -12 2 6 2 18 0 25 -3 6 -5 1 -5 -13z"/>
<path d="M3927 1483 l-18 -33 -94 0 c-57 0 -95 -4 -95 -10 0 -6 39 -10 98 -10
85 0 101 3 116 19 10 11 16 30 14 43 -3 22 -4 21 -21 -9z"/>
<path d="M2830 1449 c0 -18 2 -19 15 -9 15 12 12 30 -6 30 -5 0 -9 -10 -9 -21z"/>
<path d="M4260 1449 c0 -18 2 -19 15 -9 15 12 12 30 -6 30 -5 0 -9 -10 -9 -21z"/>
<path d="M3150 1440 c19 -13 30 -13 30 0 0 6 -10 10 -22 10 -19 0 -20 -2 -8
-10z"/>
<path d="M4040 1440 c0 -5 25 -10 55 -10 30 0 55 5 55 10 0 6 -25 10 -55 10
-30 0 -55 -4 -55 -10z"/>
<path d="M3260 1381 c-28 -5 -31 -8 -17 -14 29 -11 53 -8 67 8 14 17 11 17
-50 6z"/>
</g>
</svg>
